<?xml version="1.0" standalone="no"?>
<!DOCTYPE svg PUBLIC "-//W3C//DTD SVG 1.1//EN" "http://www.w3.org/Graphics/SVG/1.1/DTD/svg11.dtd" >
<svg xmlns="http://www.w3.org/2000/svg">
<metadata>Generated by IcoMoon</metadata>
<defs>
<font id="pSOneUIgallery" horiz-adv-x="1024">
<font-face units-per-em="1024" ascent="960" descent="-64" />
<missing-glyph horiz-adv-x="1024" />
<glyph unicode="&#x20;" horiz-adv-x="512" d="" />
<glyph unicode="&#xe900;" glyph-name="caret_doubleleft" d="M241.92 430.933c-4.324 4.388-6.994 10.415-6.994 17.067s2.67 12.679 6.997 17.070l-0.003-0.003 235.52 232.107c4.388 4.324 10.415 6.994 17.067 6.994s12.679-2.67 17.070-6.997l-0.003 0.003 14.080-14.507c4.299-4.32 6.956-10.276 6.956-16.853s-2.658-12.534-6.957-16.854l0.001 0.001-204.373-200.96 204.8-200.96c4.299-4.32 6.956-10.276 6.956-16.853s-2.658-12.534-6.957-16.854l-14.506-14.506c-4.32-4.299-10.276-6.956-16.853-6.956s-12.534 2.658-16.854 6.957l0.001-0.001zM497.92 465.067l235.947 232.107c4.32 4.299 10.276 6.956 16.853 6.956s12.534-2.658 16.854-6.957l14.506-14.506c4.299-4.32 6.956-10.276 6.956-16.853s-2.658-12.534-6.957-16.854l0.001 0.001-204.8-200.96 204.373-200.96c4.299-4.32 6.956-10.276 6.956-16.853s-2.658-12.534-6.957-16.854l0.001 0.001-14.080-14.507c-4.388-4.324-10.415-6.994-17.067-6.994s-12.679 2.67-17.070 6.997l0.003-0.003-235.52 232.107c-4.324 4.388-6.994 10.415-6.994 17.067s2.67 12.679 6.997 17.070l-0.003-0.003z" />
<glyph unicode="&#xe901;" glyph-name="caret_doubleright" d="M545.707 697.173l0.001-0.001c-4.321 4.3-10.277 6.957-16.854 6.957s-12.534-2.658-16.853-6.956l-14.079-14.506c-4.3-4.321-6.957-10.277-6.957-16.854s2.658-12.534 6.956-16.853l204.8-200.96-204.372-200.959c-4.3-4.321-6.957-10.277-6.957-16.854s2.658-12.534 6.956-16.853l14.077-14.504c4.391-4.327 10.418-6.997 17.070-6.997s12.679 2.67 17.067 6.994l235.517 232.104c4.327 4.391 6.997 10.418 6.997 17.070s-2.67 12.679-6.994 17.067zM526.080 430.933l-0.008-0.008c4.205 4.372 6.791 10.313 6.791 16.858 0 6.759-2.757 12.874-7.21 17.283l-235.517 232.104c-4.391 4.327-10.418 6.997-17.070 6.997s-12.679-2.67-17.067-6.994l-13.652-14.506c-4.3-4.321-6.957-10.277-6.957-16.854s2.658-12.534 6.956-16.853l204.373-200.96-204.799-200.959c-4.3-4.321-6.957-10.277-6.957-16.854s2.658-12.534 6.956-16.853l14.506-14.506c4.321-4.3 10.277-6.957 16.854-6.957s12.534 2.658 16.853 6.956l235.947 232.107z" />
<glyph unicode="&#xe902;" glyph-name="caret_down" d="M494.933 305.92l-232.107 235.947c-4.299 4.32-6.956 10.276-6.956 16.853s2.658 12.534 6.957 16.854l14.506 14.506c4.32 4.299 10.276 6.956 16.853 6.956s12.534-2.658 16.854-6.957l-0.001 0.001 200.96-204.8 200.96 204.373c4.32 4.299 10.276 6.956 16.853 6.956s12.534-2.658 16.854-6.957l-0.001 0.001 14.507-14.080c4.324-4.388 6.994-10.415 6.994-17.067s-2.67-12.679-6.997-17.070l0.003 0.003-232.107-235.52c-4.388-4.324-10.415-6.994-17.067-6.994s-12.679 2.67-17.070 6.997l0.003-0.003z" />
<glyph unicode="&#xe903;" glyph-name="caret_left" d="M369.92 465.067l235.947 232.107c4.32 4.299 10.276 6.956 16.853 6.956s12.534-2.658 16.854-6.957l14.506-14.506c4.299-4.32 6.956-10.276 6.956-16.853s-2.658-12.534-6.957-16.854l0.001 0.001-204.8-200.96 204.373-200.96c4.299-4.32 6.956-10.276 6.956-16.853s-2.658-12.534-6.957-16.854l0.001 0.001-14.080-14.507c-4.388-4.324-10.415-6.994-17.067-6.994s-12.679 2.67-17.070 6.997l0.003-0.003-235.52 232.107c-4.324 4.388-6.994 10.415-6.994 17.067s2.67 12.679 6.997 17.070l-0.003-0.003z" />
<glyph unicode="&#xe904;" glyph-name="caret_right" d="M654.080 430.933l-235.947-232.107c-4.32-4.299-10.276-6.956-16.853-6.956s-12.534 2.658-16.854 6.957l-14.506 14.506c-4.299 4.32-6.956 10.276-6.956 16.853s2.658 12.534 6.957 16.854l-0.001-0.001 204.8 200.96-204.373 200.96c-4.299 4.32-6.956 10.276-6.956 16.853s2.658 12.534 6.957 16.854l-0.001-0.001 13.653 14.507c4.388 4.324 10.415 6.994 17.067 6.994s12.679-2.67 17.070-6.997l-0.003 0.003 235.52-232.107c4.453-4.409 7.21-10.524 7.21-17.283 0-6.545-2.585-12.486-6.791-16.858l0.008 0.008z" />
<glyph unicode="&#xe905;" glyph-name="caret_up" d="M529.067 590.080l232.107-235.947c4.299-4.32 6.956-10.276 6.956-16.853s-2.658-12.534-6.957-16.854l-14.506-14.506c-4.32-4.299-10.276-6.956-16.853-6.956s-12.534 2.658-16.854 6.957l0.001-0.001-200.96 204.8-200.96-204.373c-4.32-4.299-10.276-6.956-16.853-6.956s-12.534 2.658-16.854 6.957l0.001-0.001-14.507 13.653c-4.324 4.388-6.994 10.415-6.994 17.067s2.67 12.679 6.997 17.070l232.104 235.944c4.388 4.324 10.415 6.994 17.067 6.994s12.679-2.67 17.070-6.997l-0.003 0.003z" />
<glyph unicode="&#xe906;" glyph-name="clock" d="M612.693 315.733l-122.027 89.6c-4.306 3.44-7.086 8.632-7.253 14.479l-0.001 0.027v238.080c0 9.897 8.023 17.92 17.92 17.92v0h21.333c9.897 0 17.92-8.023 17.92-17.92v0-219.307l105.813-75.947c4.427-3.467 7.246-8.813 7.246-14.817 0-4.038-1.275-7.779-3.445-10.841l0.039 0.058-10.24-17.067c-3.179-5.294-8.889-8.781-15.415-8.781-4.572 0-8.744 1.712-11.91 4.53l0.018-0.016zM835.84 448c0 178.852-144.988 323.84-323.84 323.84s-323.84-144.988-323.84-323.84c0-178.852 144.988-323.84 323.84-323.84v0c178.852 0 323.84 144.988 323.84 323.84v0zM512 820.053c205.479 0 372.053-166.574 372.053-372.053s-166.574-372.053-372.053-372.053c-205.479 0-372.053 166.574-372.053 372.053v0c0 0.127 0 0.277 0 0.427 0 205.244 166.383 371.627 371.627 371.627 0.15 0 0.3 0 0.45 0h-0.023z" />
<glyph unicode="&#xe907;" glyph-name="close" d="M579.84 452.267l247.467-247.467c2.944-2.87 4.769-6.875 4.769-11.307s-1.826-8.436-4.766-11.303l-45.23-45.23c-2.87-2.944-6.875-4.769-11.307-4.769s-8.436 1.826-11.303 4.766l-0.003 0.003-247.467 247.040-247.467-247.040c-2.87-2.944-6.875-4.769-11.307-4.769s-8.436 1.826-11.303 4.766l-45.23 45.23c-2.944 2.87-4.769 6.875-4.769 11.307s1.826 8.436 4.766 11.303l247.47 247.47-247.467 247.040c-2.967 2.939-4.804 7.015-4.804 11.52s1.837 8.581 4.803 11.519l45.228 45.228c2.959 2.746 6.936 4.431 11.307 4.431s8.348-1.685 11.317-4.441l-0.011 0.010 247.467-247.467 247.467 247.467c2.959 2.746 6.936 4.431 11.307 4.431s8.348-1.685 11.317-4.441l-0.011 0.010 45.227-45.653c2.944-2.87 4.769-6.875 4.769-11.307s-1.826-8.436-4.766-11.303l-0.003-0.003z" />
<glyph unicode="&#xe908;" glyph-name="compare" d="M301.227 424.96c46.357 2.975 82.83 41.303 82.83 88.149 0 1.11-0.020 2.216-0.061 3.316l0.005-0.159c0.043 1.033 0.068 2.244 0.068 3.462 0 47.751-37.896 86.652-85.253 88.268l-0.148 0.004c-47.466-1.379-85.419-40.186-85.419-87.858 0-1.363 0.031-2.718 0.092-4.066l-0.007 0.191c-0.042-1.018-0.066-2.213-0.066-3.413 0-48.542 39.351-87.893 87.893-87.893 0.023 0 0.047 0 0.070 0h-0.004zM810.667 832h-597.333c-47.128 0-85.333-38.205-85.333-85.333v0-597.333c0-47.128 38.205-85.333 85.333-85.333v0h597.333c47.128 0 85.333 38.205 85.333 85.333v0 597.333c0 47.128-38.205 85.333-85.333 85.333v0zM512 128h-325.12v640h325.12v-401.493l-77.653-81.92-85.333 90.88c-3.142 3.551-7.711 5.778-12.8 5.778s-9.658-2.227-12.784-5.76l-0.016-0.018-106.667-116.907v-78.507h295.253zM823.893 180.053h-311.893v186.453l131.84 139.947c3.142 3.551 7.711 5.778 12.8 5.778s9.658-2.227 12.784-5.76l0.016-0.018 154.88-165.973z" />
<glyph unicode="&#xe909;" glyph-name="display_grid" d="M847.787 472.32v244.053c0 0.001 0 0.002 0 0.004 0 13.282-10.647 24.076-23.871 24.316h-288.022v-268.373zM535.893 155.307h288c13.247 0.24 23.893 11.035 23.893 24.316 0 0.001 0 0.003 0 0.004v0 244.053h-311.893zM175.787 179.627c0.235-13.336 10.984-24.085 24.298-24.32h288.022v268.373h-312.32zM488.107 740.693h-288c-13.336-0.235-24.085-10.984-24.32-24.298v-244.075h312.32zM128 716.373c0 0.001 0 0.003 0 0.005 0 39.995 32.181 72.473 72.061 72.955h623.832c39.926-0.482 72.107-32.96 72.107-72.955 0-0.002 0-0.003 0-0.005v0-536.747c0-0.001 0-0.003 0-0.005 0-39.995-32.181-72.473-72.061-72.955h-623.832c-39.926 0.482-72.107 32.96-72.107 72.955 0 0.002 0 0.003 0 0.005v0z" />
<glyph unicode="&#xe90a;" glyph-name="display_list" d="M416 159.573h407.893c0.001 0 0.002 0 0.004 0 13.196 0 23.893 10.697 23.893 23.893 0 0.15-0.001 0.3-0.004 0.449v-0.022 136.107h-431.787zM175.787 183.893c0-13.432 10.888-24.32 24.32-24.32v0h167.68v160.427h-192zM367.787 744.533h-167.68c-13.432 0-24.32-10.888-24.32-24.32v0-138.24h192zM175.787 531.2v-162.56h192v164.693zM847.787 368.64v164.693h-431.787v-162.56zM847.787 718.080c0.002 0.127 0.004 0.277 0.004 0.427 0 13.196-10.697 23.893-23.893 23.893-0.001 0-0.003 0-0.004 0h-407.893v-160.427h431.787zM128 720.213c-0.001 0.128-0.001 0.28-0.001 0.432 0 39.995 32.181 72.474 72.062 72.955h623.833c39.927-0.481 72.108-32.96 72.108-72.955 0-0.152 0-0.303-0.001-0.455v0.023-536.32c0.001-0.127 0.001-0.277 0.001-0.428 0-39.91-32.232-72.291-72.085-72.532h-623.81c-39.876 0.241-72.108 32.623-72.108 72.532 0 0.15 0 0.301 0.001 0.451v-0.023z" />
<glyph unicode="&#xe90b;" glyph-name="download" d="M847.787 285.867c0.003 0.127 0.005 0.277 0.005 0.427 0 9.897-8.023 17.92-17.92 17.92-0.002 0-0.004 0-0.005 0h-197.12l-78.080-78.507c-10.8-11.175-25.923-18.114-42.667-18.114s-31.867 6.939-42.65 18.097l-0.016 0.017-78.080 78.507h-197.12c-10.133 0-18.347-8.214-18.347-18.347v0-155.733c0-0.002 0-0.003 0-0.005 0-9.897 8.023-17.92 17.92-17.92 0.15 0 0.3 0.002 0.449 0.006h635.711c0.129-0.003 0.28-0.005 0.432-0.005 9.661 0 17.493 7.832 17.493 17.493 0 0.152-0.002 0.303-0.006 0.454v-0.022zM503.467 259.413c2.17-2.214 5.191-3.586 8.533-3.586s6.363 1.372 8.531 3.584l0.002 0.002 210.773 213.333c2.214 2.17 3.587 5.192 3.587 8.535 0 6.598-5.349 11.947-11.947 11.947-0.061 0-0.122 0-0.183-0.001h-125.431v278.613c0 6.598-5.349 11.947-11.947 11.947v0h-145.493c-6.598 0-11.947-5.349-11.947-11.947v0-281.173h-128c-0.052 0.001-0.113 0.001-0.174 0.001-6.598 0-11.947-5.349-11.947-11.947 0-3.342 1.373-6.364 3.585-8.533l0.002-0.002zM896 285.867v-155.733c0.001-0.127 0.001-0.278 0.001-0.428 0-36.289-29.418-65.707-65.707-65.707-0.15 0-0.301 0.001-0.451 0.002h-635.71c-0.127-0.001-0.278-0.001-0.428-0.001-36.289 0-65.707 29.418-65.707 65.707 0 0.15 0.001 0.301 0.002 0.451v-0.023 155.733c-0.001 0.127-0.001 0.278-0.001 0.428 0 36.289 29.418 65.707 65.707 65.707 0.15 0 0.301-0.001 0.451-0.002h147.177l-85.333 85.333c-11.072 10.851-17.935 25.961-17.935 42.673 0 32.99 26.744 59.733 59.733 59.733 0.305 0 0.61-0.002 0.915-0.007l-0.046 0.001h81.493v232.107c0 0 0 0.001 0 0.002 0 33.075 26.692 59.917 59.71 60.158h144.236c33.041-0.242 59.733-27.083 59.733-60.158 0-0.001 0-0.001 0-0.002v0-232.96h81.493c33.152-0.097 59.99-26.994 59.99-60.16 0-16.464-6.614-31.384-17.33-42.247l-85.326-85.326h148.907c35.59-0.715 64.195-29.619 64.427-65.258v-0.022zM680.107 214.187v0c-16.731 0-30.293-13.563-30.293-30.293v0c0-16.731 13.563-30.293 30.293-30.293s30.293 13.563 30.293 30.293c0 16.731-13.563 30.293-30.293 30.293zM805.973 183.893v-0.006c0 0.038 0 0.076 0 0.114 0 15.829-12.141 28.823-27.734 30.185h0.023c-0.15 0.002-0.299 0.003-0.449 0.003-16.731 0-30.293-13.563-30.293-30.293s13.563-30.293 30.293-30.293c16.729 0 30.292 13.561 30.293 30.29z" />
<glyph unicode="&#xe90c;" glyph-name="fullscreen" d="M878.080 271.36v-170.667c-0.233-10.744-8.882-19.393-19.605-19.626h-170.689c-10.744 0.233-19.393 8.882-19.626 19.605v16.235c0 10.84 8.787 19.627 19.627 19.627v0h95.147l-270.933 274.347-272.64-272.64h96c10.84 0 19.627-8.787 19.627-19.627v0-16.213c-0.233-10.744-8.882-19.393-19.605-19.626h-170.689c-10.744 0.233-19.393 8.882-19.626 19.605v170.689c0.233 10.744 8.882 19.393 19.605 19.626h16.235c10.84 0 19.627-8.787 19.627-19.627v0-95.147l274.347 270.080-272.64 272.64v-96c0-10.84-8.787-19.627-19.627-19.627h-17.067c-10.744 0.233-19.393 8.882-19.626 19.605v170.689c0.233 10.744 8.882 19.393 19.605 19.626h170.689c10.744-0.233 19.393-8.882 19.626-19.605v-16.235c0-10.84-8.787-19.627-19.627-19.627h-96l271.787-274.347 272.64 272.64h-96c-10.84 0-19.627 8.787-19.627 19.627v0 17.067c0.233 10.744 8.882 19.393 19.605 19.626h170.689c10.744-0.233 19.393-8.882 19.626-19.605v-170.689c-0.233-10.744-8.882-19.393-19.605-19.626h-16.235c-10.84 0-19.627 8.787-19.627 19.627v0 96l-274.347-271.787 272.64-272.64v96c0 10.84 8.787 19.627 19.627 19.627v0h16.213c0.128 0.003 0.28 0.005 0.431 0.005 10.927 0 19.812-8.739 20.049-19.609v-0.022z" />
<glyph unicode="&#xe90d;" glyph-name="links" d="M444.16 380.16l-0.093 0.087c17.951-16.991 39.048-30.692 63.666-40.62l-0.125 0.043c2.074-0.813 4.331-1.259 6.693-1.259 7.97 0 14.752 5.082 17.325 12.309l-0.194-0.71c2.371 7.472 3.891 15.324 4.461 23.75l-0.001-0.028c0.006 0.194 0.009 0.389 0.009 0.585 0 7.424-4.31 13.842-10.675 16.937l-0.871 0.331c-15.712 6.722-29.873 16.37-41.796 28.255l0.010-0.010c-25.3 25.522-40.927 60.647-40.927 99.423s15.627 73.902 40.917 99.413l120.272 118.141c25.375 24.354 59.828 39.321 97.777 39.321 77.997 0 141.227-63.229 141.227-141.227 0-37.948-14.967-72.401-39.275-97.728l-113.062-112.635c-3.262-3.377-5.27-7.975-5.27-13.042 0-0.819 0.052-1.626 0.144-2.324l-0.025 0.519c0.227-3.771 0.342-7.571 0.342-11.399s-0.115-7.628-0.317-10.88l0.001-0.029c0.321-9.615 8.217-17.31 17.91-17.31 4.807 0 9.171 1.892 12.383 4.966l5.547 5.12 118.523 118.943c32.918 34.912 53.094 81.97 53.094 133.741 0 107.688-87.299 194.987-194.987 194.987-51.77 0-98.829-20.176-133.644-53.004l-119.030-118.603c-35.181-35.405-56.919-84.182-56.919-138.037s21.738-102.632 56.909-138.027zM579.84 239.787l-0.048-0.049c34.208 35.26 55.268 83.348 55.268 136.355 0 53.651-21.574 102.262-56.5 137.614l-0.016 0.016c-17.418 17.586-38.075 31.957-62.278 42.651l0.125-0.043c-2.074 0.813-4.331 1.259-6.693 1.259-7.97 0-14.752-5.082-17.325-12.309l0.194 0.71c-2.371-7.472-3.891-15.324-4.461-23.75l0.001 0.028c-0.006-0.194-0.009-0.389-0.009-0.585 0-7.424 4.31-13.842 10.675-16.937l0.871-0.331c15.712-6.722 29.873-16.37 41.796-28.255l-0.010 0.010c25.3-25.522 40.927-60.647 40.927-99.423s-15.627-73.902-40.917-99.413l-118.565-118.141c-25.375-24.354-59.828-39.321-97.777-39.321-77.997 0-141.227 63.229-141.227 141.227 0 37.948 14.967 72.401 39.275 97.728l111.355 112.635c3.262 3.377 5.27 7.975 5.27 13.042 0 0.819-0.052 1.626-0.144 2.324 0 7.253 0 14.507 0 21.76l-0.001 0.029c-0.321 9.615-8.217 17.31-17.91 17.31-4.807 0-9.171-1.892-12.383-4.966l-5.547-5.12-118.523-118.943c-32.918-34.912-53.094-81.97-53.094-133.741 0-107.688 87.299-194.987 194.987-194.987 51.77 0 98.829 20.176 133.644 53.004l119.040 118.613z" />
<glyph unicode="&#xe90e;" horiz-adv-x="2944" d="M256 832h2432c70.692 0 128-57.308 128-128v-512c0-70.692-57.308-128-128-128h-2432c-70.692 0-128 57.308-128 128v512c0 70.692 57.308 128 128 128z" />
<glyph unicode="&#xe90f;" horiz-adv-x="2944" d="M651.093 450.133l0.079 0.034c4.422 2.14 7.471 6.67 7.471 11.912s-3.050 9.772-7.55 11.947l-256 174.933c-15.36 11.093-42.667 3.413-42.667-11.947v-349.867c0-14.933 26.88-22.613 42.667-11.947zM2507.947 517.12l0.128-0.005c-0.916 0.049-1.838 0.073-2.765 0.073-14.56 0-27.701-6.078-37.042-15.855l0.098 0.122c-10.173-12.24-16.509-27.783-17.165-44.922h108.8l-0.003-0.12c0.029 0.827 0.043 1.658 0.043 2.491 0 16.2-5.472 31.121-14.547 42.855l-0.035 0.039c-8.586 9.461-20.981 15.401-34.764 15.401-0.967 0-1.927-0.029-2.748-0.081zM2516.48 330.24c-1.496-0.084-3.246-0.132-5.007-0.132-26.217 0-49.947 10.651-67.097 27.863l-0.003 0.003c-16.535 18.981-26.615 43.961-26.615 71.296 0 2.086 0.059 4.159 0.175 6.216l-0.013-0.285c-0.089 1.732-0.14 3.761-0.14 5.802 0 27.654 9.363 53.121 25.091 73.405l-0.204-0.273c14.901 18.075 37.294 29.51 62.358 29.51 1.178 0 2.35-0.025 3.515-0.075l-0.166 0.006c1.047 0.051 2.274 0.080 3.508 0.080 22.808 0 43.306-9.887 57.443-25.609l0.062-0.071c14.128-16.828 22.711-38.726 22.711-62.627 0-1.533-0.035-3.058-0.105-4.574l0.008 0.215v-19.627h-141.653c-0.060-1.156-0.093-2.51-0.093-3.871 0-19.51 6.965-37.393 18.545-51.298l-0.105 0.13c11.464-11.655 27.403-18.877 45.030-18.877 1.27 0 2.531 0.037 3.783 0.111l-0.173-0.008c23.811 0.125 46.382 5.297 66.741 14.498l-1.035-0.418v-27.733c-8.978-4.409-19.407-7.953-30.335-10.107l-0.812-0.133c-10.212-2.171-21.944-3.414-33.967-3.414-0.208 0-0.417 0-0.625 0.001h0.032zM2379.093 390.4v0.036c-0.201 13.138-5.901 24.942-14.933 33.244l0.171-0.144c-13.899 12.017-30.286 21.234-49.237 27.024l-2.099 0.63c-12.352 4.261-24.337 9.309-34.167 14.304l-0.261 0.14c-5.009 2.914-9.512 6.602-13.393 10.953l0.059-0.098c-2.476 3.854-3.913 8.439-3.913 13.36 0 0.288 0.005 0.574 0.014 0.818l0.020-0.131c-0.228 1.251-0.348 2.54-0.348 3.857 0 7.282 3.648 13.711 9.288 17.607l-0.352-0.167c8.769 4.562 18.735 7.141 29.303 7.141 1.523 0 3.034-0.054 4.33-0.148l0.27-0.007c20.216-0.701 39.472-5.183 56.050-12.366l10.667 25.173 1.043-0.414c-20.139 8.959-42.42 13.975-65.896 14.068l0.232-0.010c-1.66 0.087-3.332 0.131-5.013 0.131-18.993 0-36.674-5.615-51.112-15.055l-0.169-0.105c-12.25-8.092-20.332-21.984-20.332-37.765 0-0.487 0.008-0.971 0.021-1.384l0.001 0.044c-0.005-0.295-0.008-0.592-0.008-0.888 0-8.607 2.216-16.696 5.981-23.476l0.139-0.246c4.418-7.236 10.434-13.388 17.781-18.101l-1.075 0.565c13.258-7.571 27.384-13.796 43.742-18.912l1.055-0.275c15.202-4.617 29.375-11.601 41.612-20.205l0.064-0.047c6.181-4.673 10.176-12.087 10.176-20.433l-0.004 0.073c0.034-0.533 0.052-1.071 0.052-1.612 0-9.473-5.323-17.703-13.275-21.927l0.411 0.191c-9.97-5.113-21.271-7.997-33.246-7.997-1.508 0-3.005 0.046-4.285 0.126h0.004c-0.028 0-0.056 0-0.085 0-11.653 0-22.942 1.557-32.773 4.267l-1.090 0.23c-11.123 2.771-21.781 6.719-30.91 11.29v-28.587l-0.73 0.336c17.357-8.795 36.989-13.751 57.778-13.751 2.446 0 4.875 0.069 6.952 0.189l-0.291 0.015c2.14-0.14 4.298-0.211 6.473-0.211 19.927 0 38.461 5.966 53.551 15.982l0.159 0.107c13.075 9.276 21.607 24.535 21.607 41.787 0 0.272-0.002 0.543-0.006 0.773zM2102.187 518.4c-1.451 0.134-3.137 0.21-4.842 0.21-16.086 0-30.586-6.796-40.783-17.673l-0.028-0.030c-9.206-14.059-14.683-31.281-14.683-49.782 0-2 0.064-3.985 0.19-5.953l-0.014 0.268v-7.253c-0.205-2.455-0.322-5.313-0.322-8.198 0-19.816 5.514-38.344 15.091-54.133l-0.262 0.465c10.293-11.65 25.269-18.959 41.952-18.959 1.603 0 3.191 0.068 4.76 0.2l-0.205-0.014c0.828-0.052 1.795-0.081 2.77-0.081 16.681 0 31.347 8.624 39.784 21.656l0.112 0.185c9.734 15.222 15.516 33.787 15.516 53.703 0 1.971-0.057 3.929-0.168 5.873l0.012-0.269c0.128 1.863 0.201 4.038 0.201 6.23 0 19.571-5.805 37.787-15.787 53.019l0.227-0.368c-8.869 12.084-23.019 19.841-38.981 19.841-1.598 0-3.178-0.078-4.737-0.23l0.198 0.016zM2106.453 331.52c-0.261-0.003-0.569-0.005-0.877-0.005-12.83 0-24.999 2.832-35.916 7.904l0.526-0.22c-11.48 5.055-20.985 12.78-28.025 22.42l-0.135 0.194c0.387-5.107 0.607-11.061 0.607-17.067s-0.22-11.96-0.654-17.855l0.046 0.788v-85.333h-31.147v298.667h25.6l4.267-28.16c7.239 10.278 16.704 18.514 27.731 24.122l0.429 0.198c10.187 4.857 22.14 7.694 34.755 7.694 0.531 0 1.062-0.005 1.591-0.015l-0.079 0.001c1.263 0.075 2.74 0.118 4.227 0.118 23.763 0 44.963-10.976 58.807-28.134l0.113-0.144c14.030-19.701 22.43-44.258 22.43-70.776 0-2.72-0.088-5.419-0.262-8.095l0.019 0.364c0.167-2.371 0.261-5.139 0.261-7.928 0-26.518-8.579-51.032-23.112-70.919l0.237 0.341c-13.943-17.989-35.555-29.457-59.845-29.457-0.561 0-1.12 0.006-1.678 0.018l0.083-0.001zM1853.44 357.547c1.169-0.078 2.534-0.122 3.91-0.122 16.059 0 30.708 6.035 41.803 15.962l-0.060-0.053c10.307 10.593 16.662 25.076 16.662 41.043 0 0.571-0.008 1.14-0.024 1.707l0.002-0.083v19.2h-31.147c-1.182 0.045-2.57 0.071-3.965 0.071-17.989 0-34.978-4.282-50.003-11.882l0.634 0.291c-10.089-6.257-16.707-17.272-16.707-29.832 0-0.763 0.024-1.52 0.073-2.271l-0.005 0.102c-0.043-0.621-0.067-1.345-0.067-2.075 0-9.292 3.961-17.659 10.286-23.505l0.021-0.020c7.332-6.119 16.857-9.834 27.249-9.834 0.471 0 0.939 0.008 1.406 0.023l-0.068-0.002zM1923.84 335.36l-6.4 27.307c-7.99-11.099-18.292-20.036-30.245-26.229l-0.475-0.224c-10.718-4.331-23.148-6.843-36.165-6.843-0.636 0-1.27 0.006-1.903 0.018l0.095-0.001c-1.011-0.051-2.196-0.081-3.387-0.081-17.046 0-32.694 5.986-44.957 15.97l0.13-0.103c-10.609 10.519-17.178 25.098-17.178 41.212 0 1.262 0.040 2.515 0.12 3.757l-0.009-0.169c0 42.667 33.28 63.573 99.413 65.28h34.987v12.8c0.129 1.338 0.202 2.894 0.202 4.466 0 11.755-4.098 22.552-10.943 31.042l0.074-0.095c-7.631 7.245-17.972 11.701-29.353 11.701-1.383 0-2.75-0.066-4.099-0.194l0.172 0.013c-21.336-0.892-41.178-6.47-58.787-15.724l0.76 0.364-9.387 23.467c9.505 5.163 20.554 9.673 32.122 12.947l1.158 0.28c10.865 2.916 23.351 4.624 36.225 4.693h0.042c1.834 0.153 3.969 0.241 6.125 0.241 18.394 0 35.302-6.36 48.646-17.002l-0.158 0.121c11.019-12.080 17.768-28.22 17.768-45.937 0-2.153-0.1-4.283-0.295-6.386l0.020 0.27v-140.373zM1755.733 333.653v29.013h-121.173v245.76h-31.573v-273.067zM1460.907 518.4c-0.718 0.036-1.559 0.057-2.404 0.057-14.498 0-27.577-6.076-36.828-15.821l-0.021-0.022c-10.2-12.090-16.674-27.618-17.487-44.629l-0.006-0.171h107.52c0.1 1.385 0.157 3 0.157 4.629 0 15.287-5.025 29.4-13.512 40.778l0.129-0.18c-8.407 8.801-20.235 14.272-33.341 14.272-1.481 0-2.945-0.070-4.39-0.206l0.185 0.014zM1469.44 331.52c-1.424-0.077-3.092-0.121-4.769-0.121-26.156 0-49.824 10.649-66.905 27.849l-0.005 0.005c-16.535 18.981-26.615 43.961-26.615 71.296 0 2.086 0.059 4.159 0.175 6.216l-0.013-0.285c-0.111 1.929-0.175 4.187-0.175 6.458 0 27.38 9.211 52.609 24.703 72.757l-0.208-0.282c15.132 18.074 37.704 29.487 62.942 29.487 0.972 0 1.941-0.017 2.905-0.051l-0.14 0.004c1.061 0.052 2.304 0.081 3.554 0.081 22.926 0 43.544-9.881 57.828-25.616l0.058-0.065c13.883-16.749 22.307-38.461 22.307-62.141 0-1.705-0.044-3.399-0.13-5.082l0.010 0.236v-19.627h-141.227c-0.076-1.303-0.119-2.826-0.119-4.36 0-19.288 6.808-36.985 18.151-50.821l-0.112 0.141c11.659-11.658 27.765-18.869 45.555-18.869 1.235 0 2.462 0.035 3.68 0.103l-0.169-0.008c0.502-0.006 1.094-0.009 1.687-0.009 22.959 0 44.817 4.71 64.662 13.216l-1.070-0.408v-27.733c-9.108-4.446-19.687-7.994-30.773-10.113l-0.801-0.127c-10.076-2.174-21.652-3.42-33.519-3.42-0.516 0-1.032 0.002-1.547 0.007l0.079-0.001zM1269.333 335.787l77.653 205.653h-33.28c-25.6-69.973-41.813-115.627-49.067-136.533l0.893 2.654c-5.303-13.849-9.835-28.080-14.12-45.321l-0.864 3.745c-5.116 18.886-11.24 37.357-17.056 51.722l-42.667 122.027h-33.28l79.787-205.653zM1090.56 595.2l0.001-0.028c0.14-5.262 2.223-10.039 5.546-13.626l-0.005 0.004c3.43-3.336 8.075-5.429 13.231-5.551l-0.071 0.005c0.557-0.052 1.122-0.079 1.693-0.079 4.244 0 8.143 1.475 11.178 3.914v0c3.478 3.475 5.629 8.277 5.629 13.582 0 0.626-0.030 1.245-0.082 1.778l-0.007-0.086c0.073 0.688 0.11 1.386 0.11 2.094 0 5.37-2.157 10.237-5.65 13.779v0c-3.166 3.167-7.54 5.125-12.371 5.125-0.151 0-0.301-0.002-0.429-0.005l0.030-0.001c-0.206 0.007-0.413 0.010-0.62 0.010-5.051 0-9.647-1.951-13.063-5.129l0.022 0.026c-3.252-3.744-5.221-8.634-5.221-13.983 0-0.644 0.029-1.282 0.079-1.83zM1124.267 539.733h-31.147v-205.653h31.147zM1051.307 333.653v29.013h-120.747v245.76h-32v-274.347z" />
<glyph unicode="&#xe910;" glyph-name="logout" d="M704 712.107c39.823 0 72.107-32.283 72.107-72.107s-32.283-72.107-72.107-72.107c-39.823 0-72.107 32.283-72.107 72.107v0c0 39.823 32.283 72.107 72.107 72.107v0zM704 669.44c-16.495 0-29.867-13.372-29.867-29.867s13.372-29.867 29.867-29.867c16.495 0 29.867 13.372 29.867 29.867v0c0.002 0.127 0.003 0.277 0.003 0.427 0 16.495-13.372 29.867-29.867 29.867-0.001 0-0.002 0-0.003 0v0zM631.893 832c3.166 0.136 6.881 0.213 10.613 0.213 145.862 0 264.107-118.245 264.107-264.107s-118.245-264.107-264.107-264.107c-3.732 0-7.447 0.077-11.142 0.231l0.528-0.017c-0.547-0.004-1.195-0.007-1.843-0.007-23.314 0-45.901 3.117-67.365 8.956l1.794-0.416-46.080-46.080c-6.502-6.587-15.53-10.667-25.511-10.667-0.031 0-0.063 0-0.094 0h-28.582v-60.16c-0.241-19.845-16.385-35.84-36.264-35.84-0.001 0-0.002 0-0.003 0h-60.16v-60.16c0-19.794-16.046-35.84-35.84-35.84v0h-168.107c-19.698 0.238-35.602 16.142-35.84 35.817v134.85c0.65 9.896 4.581 18.767 10.704 25.643l-0.037-0.043 238.080 238.080c-5.689 20.132-8.96 43.252-8.96 67.137 0 0.097 0 0.195 0 0.292v-0.015c-0.005 0.634-0.009 1.383-0.009 2.133 0 145.862 118.245 264.107 264.107 264.107 0.003 0 0.006 0 0.009 0h-0.001zM631.893 783.787c-119.235 0-215.893-96.659-215.893-215.893v0c0.024-28.89 5.662-56.456 15.883-81.675l-0.523 1.461-256-256v-119.893h144.64v96.427h96v96h72.107l63.573 63.147c23.758-9.698 51.324-15.336 80.204-15.36h0.009c119.235 0 215.893 96.659 215.893 215.893s-96.659 215.893-215.893 215.893v0z" />
<glyph unicode="&#xe911;" glyph-name="menu" d="M868.693 149.333v0c5.42 0 9.813 4.394 9.813 9.813v40.107c0 5.42-4.394 9.813-9.813 9.813h-713.387c-5.42 0-9.813-4.394-9.813-9.813v-40.107c0-5.42 4.394-9.813 9.813-9.813h713.387zM868.693 418.133h-0.012c0.082-0.002 0.164-0.003 0.246-0.003 4.665 0 8.569 3.255 9.579 7.683v40.107c0 5.42-4.394 9.813-9.813 9.813h-713.387c-5.42 0-9.813-4.394-9.813-9.813v-40.107c0-5.42 4.394-9.813 9.813-9.813h713.387zM868.693 684.8v0c5.42 0 9.813 4.394 9.813 9.813v40.107c0 5.42-4.394 9.813-9.813 9.813h-713.387c-5.42 0-9.813-4.394-9.813-9.813v-42.24c0-5.42 4.394-9.813 9.813-9.813h713.387z" />
<glyph unicode="&#xe912;" glyph-name="share" d="M709.547 112.213c51.906 1.428 93.44 43.847 93.44 95.966 0 53.019-42.981 96-96 96-53.007 0-95.981-42.961-96-95.964v-0.002c0.717-53.177 43.992-96.009 97.272-96.009 0.453 0 0.905 0.003 1.357 0.009l-0.068-0.001zM314.027 352c50.961 2.571 91.307 44.517 91.307 95.885 0 53.019-42.981 96-96 96-52.979 0-95.935-42.915-96-95.879v-0.006c0.934-53.243 44.315-96.046 97.693-96.046 1.055 0 2.106 0.017 3.154 0.050l-0.153-0.004zM709.547 783.787c-0.383 0.005-0.835 0.009-1.288 0.009-53.279 0-96.554-42.832-97.271-95.941l-0.001-0.068c3.51-51.801 46.39-92.491 98.773-92.491s95.263 40.69 98.757 92.187l0.017 0.304c-0.714 53.179-43.99 96.015-97.272 96.015-0.603 0-1.205-0.005-1.805-0.016l0.090 0.001zM709.547 352c77.977-2.143 140.373-65.866 140.373-144.162 0-79.647-64.567-144.213-144.213-144.213s-144.213 64.567-144.213 144.213c0 0.132 0 0.264 0.001 0.396v-0.020c0 0.079 0 0.173 0 0.267 0 19.634 4.081 38.316 11.44 55.242l-0.347-0.896-145.92 89.6c-27.24-29.682-66.214-48.22-109.518-48.22-0.497 0-0.994 0.002-1.491 0.007l0.076-0.001c-79.411 0-143.787 64.375-143.787 143.787s64.375 143.787 143.787 143.787v0c0.421 0.004 0.918 0.007 1.415 0.007 43.304 0 82.279-18.538 109.42-48.111l0.098-0.109 147.627 89.6c-7.013 16.031-11.094 34.712-11.094 54.347 0 0.094 0 0.188 0 0.281v-0.015c0 82.475 66.859 149.333 149.333 149.333s149.333-66.859 149.333-149.333v0c-1.43-79.723-66.394-143.803-146.325-143.803-0.758 0-1.514 0.006-2.27 0.017l0.114-0.001c-1.584-0.060-3.445-0.094-5.313-0.094-43.783 0-83.19 18.735-110.641 48.625l-0.099 0.109-147.627-89.6c7.176-16.223 11.353-35.144 11.353-55.040s-4.177-38.817-11.703-55.932l0.35 0.892 147.627-89.6c27.546 29.948 66.92 48.648 110.661 48.648 0.546 0 1.091-0.003 1.635-0.009l-0.083 0.001z" />
<glyph unicode="&#xe913;" glyph-name="video" d="M847.787 566.187v62.293c0.003 0.128 0.005 0.28 0.005 0.432 0 9.984-7.975 18.106-17.903 18.341h-59.755c-10.183-0.239-18.347-8.55-18.347-18.768 0-0.002 0-0.003 0-0.005v0-62.293c0-0.001 0-0.003 0-0.005 0-10.218 8.164-18.53 18.325-18.768h59.755c9.95 0.236 17.925 8.357 17.925 18.342 0 0.152-0.002 0.303-0.006 0.454v-0.022zM847.787 416.853v62.293c0.003 0.128 0.005 0.28 0.005 0.432 0 9.984-7.975 18.106-17.903 18.341h-59.755c-10.183-0.239-18.347-8.55-18.347-18.768 0-0.002 0-0.003 0-0.005v0-62.293c0-0.001 0-0.003 0-0.005 0-10.218 8.164-18.53 18.325-18.768h59.755c9.95 0.236 17.925 8.357 17.925 18.342 0 0.152-0.002 0.303-0.006 0.454v-0.022zM847.787 267.52v62.293c0.003 0.128 0.005 0.28 0.005 0.432 0 9.984-7.975 18.106-17.903 18.341h-59.755c-10.183-0.239-18.347-8.55-18.347-18.768 0-0.002 0-0.003 0-0.005v0-62.293c0-0.001 0-0.003 0-0.005 0-10.218 8.164-18.53 18.325-18.768h59.755c9.95 0.236 17.925 8.357 17.925 18.342 0 0.152-0.002 0.303-0.006 0.454v-0.022zM704 490.667v187.733c0.003 0.127 0.005 0.277 0.005 0.427 0 9.897-8.023 17.92-17.92 17.92-0.002 0-0.004 0-0.005 0h-348.16c-0.002 0-0.003 0-0.005 0-9.897 0-17.92-8.023-17.92-17.92 0-0.15 0.002-0.3 0.006-0.449v0.022-187.733c-0.003-0.128-0.005-0.28-0.005-0.432 0-9.984 7.975-18.106 17.903-18.341h348.182c9.95 0.236 17.925 8.357 17.925 18.342 0 0.152-0.002 0.303-0.006 0.454v-0.022zM704 216.747v188.587c0.003 0.128 0.005 0.28 0.005 0.432 0 9.984-7.975 18.106-17.903 18.341h-348.182c-9.95-0.236-17.925-8.357-17.925-18.342 0-0.152 0.002-0.303 0.006-0.454v0.022-187.733c-0.003-0.127-0.005-0.277-0.005-0.427 0-9.897 8.023-17.92 17.92-17.92 0.002 0 0.004 0 0.005 0h348.16c0.002 0 0.003 0 0.005 0 9.897 0 17.92 8.023 17.92 17.92 0 0.15-0.002 0.3-0.006 0.449v-0.022zM271.787 566.187v62.293c0.006 0.18 0.010 0.392 0.010 0.605 0 9.233-6.82 16.873-15.698 18.157l-0.099 0.012h-61.867c-10.183-0.239-18.347-8.55-18.347-18.768 0-0.002 0-0.003 0-0.005v0-62.293c0-0.001 0-0.003 0-0.005 0-10.218 8.164-18.53 18.325-18.768h61.889c8.976 1.295 15.797 8.935 15.797 18.169 0 0.213-0.004 0.424-0.011 0.635l0.001-0.031zM271.787 416.853v62.293c0.006 0.18 0.010 0.392 0.010 0.605 0 9.233-6.82 16.873-15.698 18.157l-0.099 0.012h-61.867c-10.183-0.239-18.347-8.55-18.347-18.768 0-0.002 0-0.003 0-0.005v0-62.293c0-0.001 0-0.003 0-0.005 0-10.218 8.164-18.53 18.325-18.768h61.889c8.976 1.295 15.797 8.935 15.797 18.169 0 0.213-0.004 0.424-0.011 0.635l0.001-0.031zM271.787 267.52v62.293c0.006 0.18 0.010 0.392 0.010 0.605 0 9.233-6.82 16.873-15.698 18.157l-0.099 0.012h-61.867c-10.183-0.239-18.347-8.55-18.347-18.768 0-0.002 0-0.003 0-0.005v0-62.293c0-0.001 0-0.003 0-0.005 0-10.218 8.164-18.53 18.325-18.768h61.889c8.976 1.295 15.797 8.935 15.797 18.169 0 0.213-0.004 0.424-0.011 0.635l0.001-0.031zM860.16 746.667c19.899-0.472 35.85-16.715 35.85-36.684 0-0.303-0.004-0.606-0.011-0.908l0.001 0.045v-522.24c0.006-0.257 0.010-0.56 0.010-0.863 0-19.969-15.951-36.212-35.806-36.683l-0.044-0.001h-11.947v31.147c0 0.001 0 0.003 0 0.005 0 10.218-8.164 18.53-18.325 18.768h-59.755c-10.183-0.239-18.347-8.55-18.347-18.768 0-0.002 0-0.003 0-0.005v0-31.147h-479.573v31.147c0.001 0.052 0.001 0.114 0.001 0.175 0 9.466-7.005 17.295-16.114 18.586l-0.1 0.012h-61.867c-10.183-0.239-18.347-8.55-18.347-18.768 0-0.002 0-0.003 0-0.005v0-31.147h-11.947c-19.899 0.472-35.85 16.715-35.85 36.684 0 0.303 0.004 0.606 0.011 0.908l-0.001-0.045v522.24c-0.006 0.257-0.010 0.56-0.010 0.863 0 19.969 15.951 36.212 35.806 36.683l0.044 0.001h11.947v-31.147c0-0.001 0-0.003 0-0.005 0-10.218 8.164-18.53 18.325-18.768h61.889c10.183 0.239 18.347 8.55 18.347 18.768 0 0.002 0 0.003 0 0.005v0 31.147h477.44v-31.147c0-0.001 0-0.003 0-0.005 0-10.218 8.164-18.53 18.325-18.768h59.755c10.183 0.239 18.347 8.55 18.347 18.768 0 0.002 0 0.003 0 0.005v0 31.147z" />
<glyph unicode="&#xe914;" glyph-name="zoom_maximise" d="M880.213 495.787c8.719 0 15.787-7.068 15.787-15.787v0-64c0-0.002 0-0.004 0-0.006 0-8.804-7.018-15.97-15.765-16.207h-320.022v-319.573c0-8.954-7.259-16.213-16.213-16.213v0h-64c-0.002 0-0.004 0-0.006 0-8.719 0-15.787 7.068-15.787 15.787 0 0.15 0.002 0.3 0.006 0.449v-0.022 319.573h-320c-8.954 0-16.213 7.259-16.213 16.213v64c0 0.002 0 0.004 0 0.006 0 8.719 7.068 15.787 15.787 15.787 0.15 0 0.3-0.002 0.449-0.006h319.978v320c-0.004 0.127-0.006 0.277-0.006 0.427 0 8.719 7.068 15.787 15.787 15.787 0.002 0 0.004 0 0.006 0h64c8.954 0 16.213-7.259 16.213-16.213v0-320z" />
<glyph unicode="&#xe915;" glyph-name="zoom_minimise" d="M144.213 495.787h735.573c8.719 0 15.787-7.068 15.787-15.787v0-64c0-8.719-7.068-15.787-15.787-15.787v0h-735.573c-0.127-0.004-0.277-0.006-0.427-0.006-8.719 0-15.787 7.068-15.787 15.787 0 0.002 0 0.004 0 0.006v0 64c0.238 8.769 7.403 15.787 16.208 15.787 0.002 0 0.004 0 0.006 0v0z" />
</font>
</defs>
</svg>
